# xmcd CD database file
#
# Track frame offsets:
#	150
#	20480
#	30311
#	41942
#	57623
#	68429
#	90861
#	105190
#	118097
#	126429
#
# Disc length: 1939 seconds
#
# Revision: 1
# Processed by: cddbd v1.5.1PL0 Copyright (c) Steve Scherf et al.
# Submitted via: jetAudio 5
#
DISCID=7b07910a
DTITLE=Reverend Gary Davis - Ragtime Guitar
DYEAR=1900
DGENRE=
TTITLE0=Cincinatti Flow Rag
TTITLE1=West Coast Blues
TTITLE2=Buck Rag
TTITLE3=St Louis Tickle
TTITLE4=Two Step Candyman
TTITLE5=Walkin' Dog Blues
TTITLE6=Italian Rag
TTITLE7=C-Rag
TTITLE8=Waltz Time Candyman
TTITLE9=Make Believe Stunt
EXTD=
EXTT0=
EXTT1=
EXTT2=
EXTT3=
EXTT4=
EXTT5=
EXTT6=
EXTT7=
EXTT8=
EXTT9=
PLAYORDER=
